<?xml version="1.0" standalone="no"?>
<!DOCTYPE svg PUBLIC "-//W3C//DTD SVG 20010904//EN"
 "http://www.w3.org/TR/2001/REC-SVG-20010904/DTD/svg10.dtd">
<svg version="1.0" xmlns="http://www.w3.org/2000/svg"
 width="164.000000pt" height="164.000000pt" viewBox="0 0 164.000000 164.000000"
 preserveAspectRatio="xMidYMid meet">
<metadata>
Created by potrace 1.11, written by Peter Selinger 2001-2013
</metadata>
<g transform="translate(0.000000,164.000000) scale(0.100000,-0.100000)"
fill="#000000" stroke="none">
<path d="M310 1525 c-14 -8 -51 -14 -87 -15 l-63 0 0 -289 c0 -276 -1 -290
-19 -296 -11 -3 -22 -12 -25 -20 -3 -8 -12 -15 -21 -15 -8 0 -15 -6 -15 -13 0
-7 -10 -17 -22 -22 -41 -19 -33 -35 19 -33 26 0 56 0 66 -1 16 -1 17 -23 17
-311 l0 -310 355 0 c309 0 355 -2 355 -15 0 -8 4 -15 10 -15 6 0 6 -10 -1 -27
-8 -21 -7 -30 3 -38 14 -10 14 -13 17 -70 1 -24 6 -35 16 -35 8 0 15 7 15 16
0 9 5 12 11 8 8 -5 10 1 7 18 -2 13 1 30 8 36 8 7 11 24 8 40 -4 19 0 32 10
41 9 8 16 20 16 27 0 12 42 14 235 14 l235 0 0 135 c0 76 4 135 9 135 5 0 17
-8 27 -17 18 -18 81 -26 90 -11 3 5 1 15 -5 21 -5 7 -8 22 -5 33 3 12 -1 26
-10 33 -8 7 -13 18 -10 26 3 7 -7 22 -22 34 -15 11 -22 21 -15 21 19 0 12 17
-22 54 -24 25 -30 37 -20 40 7 3 13 10 13 17 0 6 -7 9 -15 5 -13 -5 -15 43
-15 389 l0 395 -292 0 c-235 1 -298 4 -318 15 -32 18 -40 18 -40 0 0 -13 -26
-15 -171 -15 -107 0 -178 4 -191 11 -34 18 -110 21 -138 4z m10 -85 c11 -11
20 -23 20 -27 1 -5 19 -21 41 -36 23 -16 38 -31 35 -34 -19 -20 113 -122 244
-188 38 -19 49 -30 41 -38 -7 -7 -24 -7 -58 3 -61 17 -171 19 -181 3 -4 -6
-24 -14 -45 -18 -21 -4 -37 -13 -37 -21 0 -7 -11 -16 -25 -20 -14 -3 -31 -15
-39 -25 -12 -18 -73 -49 -96 -49 -6 0 -10 80 -10 235 l0 235 45 0 c32 0 51 -6
65 -20z m491 13 c6 -34 4 -195 -2 -199 -5 -3 -29 26 -54 64 -29 43 -62 79 -91
97 -25 16 -47 32 -50 37 -3 4 40 8 95 8 56 0 102 -3 102 -7z m607 -320 c1
-178 0 -323 -3 -323 -3 0 -17 7 -31 16 -22 15 -23 18 -7 29 15 11 15 13 -8 25
-13 7 -40 27 -59 45 -19 18 -53 42 -75 53 -35 19 -37 21 -15 22 14 0 38 7 54
15 15 8 37 15 47 15 11 0 18 4 17 9 -4 12 42 51 59 51 8 0 11 5 8 10 -3 6 -13
10 -21 10 -8 0 -22 8 -33 19 -12 12 -40 21 -84 25 -69 8 -110 -1 -199 -45 -43
-21 -47 -21 -63 -6 -14 14 -15 30 -9 103 6 81 5 89 -21 145 -16 32 -32 59 -37
59 -4 0 -8 7 -8 15 0 8 -4 15 -10 15 -5 0 -10 5 -10 10 0 7 86 9 253 8 l252
-3 3 -322z m-748 -257 c0 -2 -19 -15 -43 -29 -44 -26 -197 -187 -178 -187 20
0 11 -28 -14 -44 -18 -12 -24 -23 -20 -36 3 -10 1 -21 -5 -25 -6 -4 -8 -15 -5
-24 3 -10 -3 -25 -14 -35 -11 -10 -17 -24 -15 -31 3 -7 1 -16 -5 -20 -6 -3
-11 -14 -11 -24 0 -10 -6 -24 -14 -31 -8 -6 -12 -18 -9 -26 3 -8 0 -14 -6 -14
-6 0 -21 -22 -33 -50 -21 -45 -26 -50 -55 -50 l-33 0 0 294 c0 270 1 295 17
298 9 2 67 0 128 -5 100 -7 118 -5 200 17 93 25 115 29 115 22z m422 -102 c91
-95 127 -122 138 -103 10 16 12 14 34 -29 12 -23 22 -31 34 -28 12 4 21 -2 27
-17 6 -12 17 -22 26 -22 9 0 28 -14 43 -32 25 -30 26 -35 26 -162 l0 -131
-205 0 c-195 0 -205 1 -205 19 0 11 6 21 13 24 7 2 12 22 11 56 0 47 2 51 20
49 16 -2 22 4 27 27 17 80 -2 228 -49 368 -11 31 -18 57 -16 57 2 0 36 -34 76
-76z m-267 -156 c-14 -183 -14 -198 2 -198 12 0 13 -6 8 -27 -10 -36 -13 -93
-5 -93 3 0 12 6 19 12 10 11 12 6 9 -22 l-3 -35 -252 -3 c-230 -2 -289 3 -235
22 9 3 31 14 47 25 17 11 38 20 48 20 9 1 17 6 17 11 0 6 10 15 23 21 44 20
69 37 84 58 10 16 18 19 27 12 9 -8 18 1 34 34 14 28 26 43 35 39 17 -6 33 13
86 104 24 39 47 72 51 72 5 0 7 -24 5 -52z"/>
<path d="M1135 1307 c-107 -166 -108 -167 -102 -167 7 0 190 280 185 285 -2 2
-39 -51 -83 -118z"/>
<path d="M1585 470 c3 -5 10 -10 16 -10 5 0 9 5 9 10 0 6 -7 10 -16 10 -8 0
-12 -4 -9 -10z"/>
</g>
</svg>
